<?xml version="1.0" encoding="UTF-8"?>
<svg width="120" height="40" viewBox="0 0 120 40" fill="none" xmlns="http://www.w3.org/2000/svg">
  <path d="M10 8H25C28.866 8 32 11.134 32 15V25C32 28.866 28.866 32 25 32H10C6.13401 32 3 28.866 3 25V15C3 11.134 6.13401 8 10 8Z" fill="currentColor"/>
  <path d="M43 12H45V28H43V12Z" fill="currentColor"/>
  <path d="M53 12C54.5913 12 56.1174 12.6321 57.2426 13.7574C58.3679 14.8826 59 16.4087 59 18V22C59 23.5913 58.3679 25.1174 57.2426 26.2426C56.1174 27.3679 54.5913 28 53 28H48V12H53ZM53 26C54.0609 26 55.0783 25.5786 55.8284 24.8284C56.5786 24.0783 57 23.0609 57 22V18C57 16.9391 56.5786 15.9217 55.8284 15.1716C55.0783 14.4214 54.0609 14 53 14H50V26H53Z" fill="currentColor"/>
  <path d="M67 12C68.5913 12 70.1174 12.6321 71.2426 13.7574C72.3679 14.8826 73 16.4087 73 18V22C73 23.5913 72.3679 25.1174 71.2426 26.2426C70.1174 27.3679 68.5913 28 67 28C65.4087 28 63.8826 27.3679 62.7574 26.2426C61.6321 25.1174 61 23.5913 61 22V18C61 16.4087 61.6321 14.8826 62.7574 13.7574C63.8826 12.6321 65.4087 12 67 12ZM67 14C66.2044 14 65.4413 14.3161 64.8787 14.8787C64.3161 15.4413 64 16.2044 64 17V23C64 23.7956 64.3161 24.5587 64.8787 25.1213C65.4413 25.6839 66.2044 26 67 26C67.7956 26 68.5587 25.6839 69.1213 25.1213C69.6839 24.5587 70 23.7956 70 23V17C70 16.2044 69.6839 15.4413 69.1213 14.8787C68.5587 14.3161 67.7956 14 67 14Z" fill="currentColor"/>
  <path d="M86 14H81C80.4696 14 79.9609 14.2107 79.5858 14.5858C79.2107 14.9609 79 15.4696 79 16V24C79 24.5304 79.2107 25.0391 79.5858 25.4142C79.9609 25.7893 80.4696 26 81 26H86V28H81C79.9391 28 78.9217 27.5786 78.1716 26.8284C77.4214 26.0783 77 25.0609 77 24V16C77 14.9391 77.4214 13.9217 78.1716 13.1716C78.9217 12.4214 79.9391 12 81 12H86V14Z" fill="currentColor"/>
  <path d="M88 12H96C97.0609 12 98.0783 12.4214 98.8284 13.1716C99.5786 13.9217 100 14.9391 100 16V28H98V16C98 15.4696 97.7893 14.9609 97.4142 14.5858C97.0391 14.2107 96.5304 14 96 14H90V28H88V12Z" fill="currentColor"/>
</svg>
